<mxfile host="app.diagrams.net" modified="2021-04-26T22:34:09.623Z" agent="5.0 (Macintosh; Intel Mac OS X 10_14_6) AppleWebKit/537.36 (KHTML, like Gecko) Chrome/90.0.4430.85 Safari/537.36" etag="FL0Z6sZ_Nl4hpzG-n_Ml" version="14.6.6" type="github">
  <diagram id="xlo8GDSGNubSKItLy62D" name="Page-1">
    <mxGraphModel dx="855" dy="526" grid="1" gridSize="10" guides="1" tooltips="1" connect="1" arrows="1" fold="1" page="1" pageScale="1" pageWidth="850" pageHeight="1100" math="0" shadow="0">
      <root>
        <mxCell id="0" />
        <mxCell id="1" parent="0" />
        <mxCell id="_9nAamdEMPKrEvPj0qOe-1" value="" style="aspect=fixed;perimeter=ellipsePerimeter;html=1;align=center;shadow=0;dashed=0;spacingTop=3;image;image=img/lib/active_directory/internet_globe.svg;" parent="1" vertex="1">
          <mxGeometry x="40" y="361.9" width="50" height="50" as="geometry" />
        </mxCell>
        <mxCell id="_9nAamdEMPKrEvPj0qOe-2" value="" style="image;html=1;image=img/lib/clip_art/networking/Modem_128x128.png" parent="1" vertex="1">
          <mxGeometry x="90" y="240" width="80" height="80" as="geometry" />
        </mxCell>
        <mxCell id="_9nAamdEMPKrEvPj0qOe-3" value="" style="image;html=1;image=img/lib/clip_art/networking/Router_128x128.png;rotation=0;labelBorderColor=none;" parent="1" vertex="1">
          <mxGeometry x="250" y="130" width="80" height="80" as="geometry" />
        </mxCell>
        <mxCell id="_9nAamdEMPKrEvPj0qOe-4" value="" style="image;html=1;image=img/lib/clip_art/networking/Switch_128x128.png" parent="1" vertex="1">
          <mxGeometry x="440" y="100" width="80" height="80" as="geometry" />
        </mxCell>
        <mxCell id="_9nAamdEMPKrEvPj0qOe-5" value="" style="image;html=1;image=img/lib/clip_art/computers/Laptop_128x128.png" parent="1" vertex="1">
          <mxGeometry x="718" y="281.9" width="80" height="80" as="geometry" />
        </mxCell>
        <mxCell id="_9nAamdEMPKrEvPj0qOe-6" value="" style="shape=image;html=1;verticalAlign=top;verticalLabelPosition=bottom;labelBackgroundColor=#ffffff;imageAspect=0;aspect=fixed;image=https://cdn0.iconfinder.com/data/icons/devices-42/512/android_phone-128.png" parent="1" vertex="1">
          <mxGeometry x="641" y="376" width="98" height="98" as="geometry" />
        </mxCell>
        <mxCell id="_9nAamdEMPKrEvPj0qOe-7" value="" style="image;html=1;image=img/lib/clip_art/computers/Printer_128x128.png" parent="1" vertex="1">
          <mxGeometry x="420" y="450" width="80" height="80" as="geometry" />
        </mxCell>
        <mxCell id="_9nAamdEMPKrEvPj0qOe-8" value="" style="verticalLabelPosition=bottom;aspect=fixed;html=1;verticalAlign=top;strokeColor=none;align=center;outlineConnect=0;shape=mxgraph.citrix.desktop;" parent="1" vertex="1">
          <mxGeometry x="276" y="352" width="89" height="98" as="geometry" />
        </mxCell>
        <mxCell id="_9nAamdEMPKrEvPj0qOe-9" value="" style="outlineConnect=0;dashed=0;verticalLabelPosition=bottom;verticalAlign=top;align=center;html=1;shape=mxgraph.aws3.alexa_enabled_device;fillColor=#5294CF;gradientColor=none;" parent="1" vertex="1">
          <mxGeometry x="729.25" y="150" width="79.5" height="80" as="geometry" />
        </mxCell>
        <mxCell id="_9nAamdEMPKrEvPj0qOe-10" value="ROUTER&lt;br&gt;" style="text;html=1;align=center;verticalAlign=middle;resizable=0;points=[];autosize=1;strokeColor=none;" parent="1" vertex="1">
          <mxGeometry x="260" y="190" width="70" height="20" as="geometry" />
        </mxCell>
        <mxCell id="_9nAamdEMPKrEvPj0qOe-11" value="SWITCH" style="text;html=1;align=center;verticalAlign=middle;resizable=0;points=[];autosize=1;strokeColor=none;" parent="1" vertex="1">
          <mxGeometry x="440" y="95" width="60" height="20" as="geometry" />
        </mxCell>
        <mxCell id="_9nAamdEMPKrEvPj0qOe-12" value="MODEM" style="text;html=1;align=center;verticalAlign=middle;resizable=0;points=[];autosize=1;strokeColor=none;" parent="1" vertex="1">
          <mxGeometry x="120" y="220" width="60" height="20" as="geometry" />
        </mxCell>
        <mxCell id="_9nAamdEMPKrEvPj0qOe-13" value="ISP" style="text;html=1;align=center;verticalAlign=middle;resizable=0;points=[];autosize=1;strokeColor=none;" parent="1" vertex="1">
          <mxGeometry x="50" y="345" width="30" height="20" as="geometry" />
        </mxCell>
        <mxCell id="_9nAamdEMPKrEvPj0qOe-14" value="LAPTOP" style="text;html=1;align=center;verticalAlign=middle;resizable=0;points=[];autosize=1;strokeColor=none;" parent="1" vertex="1">
          <mxGeometry x="760" y="281.9" width="60" height="20" as="geometry" />
        </mxCell>
        <mxCell id="_9nAamdEMPKrEvPj0qOe-15" value="ALEXA" style="text;html=1;align=center;verticalAlign=middle;resizable=0;points=[];autosize=1;strokeColor=none;" parent="1" vertex="1">
          <mxGeometry x="739" y="180" width="50" height="20" as="geometry" />
        </mxCell>
        <mxCell id="_9nAamdEMPKrEvPj0qOe-16" value="" style="points=[[0.03,0.36,0],[0.18,0,0],[0.5,0.34,0],[0.82,0,0],[0.97,0.36,0],[1,0.67,0],[0.975,0.975,0],[0.5,1,0],[0.025,0.975,0],[0,0.67,0]];verticalLabelPosition=bottom;html=1;verticalAlign=top;aspect=fixed;align=center;pointerEvents=1;shape=mxgraph.cisco19.wireless_access_point;fillColor=#005073;strokeColor=none;" parent="1" vertex="1">
          <mxGeometry x="600" y="210" width="50" height="50" as="geometry" />
        </mxCell>
        <mxCell id="_9nAamdEMPKrEvPj0qOe-19" value="ACCESS POINT" style="text;html=1;align=center;verticalAlign=middle;resizable=0;points=[];autosize=1;strokeColor=none;" parent="1" vertex="1">
          <mxGeometry x="570" y="265" width="100" height="20" as="geometry" />
        </mxCell>
        <mxCell id="_9nAamdEMPKrEvPj0qOe-21" value="" style="aspect=fixed;pointerEvents=1;shadow=0;dashed=0;html=1;strokeColor=none;labelPosition=center;verticalLabelPosition=bottom;verticalAlign=top;align=center;fillColor=#00188D;shape=mxgraph.mscae.enterprise.wireless_connection;rotation=10;" parent="1" vertex="1">
          <mxGeometry x="650" y="205" width="52" height="61.9" as="geometry" />
        </mxCell>
        <mxCell id="_9nAamdEMPKrEvPj0qOe-22" value="PHONE&lt;br&gt;" style="text;html=1;align=center;verticalAlign=middle;resizable=0;points=[];autosize=1;strokeColor=none;" parent="1" vertex="1">
          <mxGeometry x="620" y="370" width="60" height="20" as="geometry" />
        </mxCell>
        <mxCell id="_9nAamdEMPKrEvPj0qOe-23" value="" style="aspect=fixed;pointerEvents=1;shadow=0;dashed=0;html=1;strokeColor=none;labelPosition=center;verticalLabelPosition=bottom;verticalAlign=top;align=center;fillColor=#00188D;shape=mxgraph.mscae.enterprise.wireless_connection;rotation=45;" parent="1" vertex="1">
          <mxGeometry x="588" y="295" width="42" height="50" as="geometry" />
        </mxCell>
        <mxCell id="_9nAamdEMPKrEvPj0qOe-31" value="" style="edgeStyle=segmentEdgeStyle;endArrow=classic;html=1;exitX=0.486;exitY=0.05;exitDx=0;exitDy=0;exitPerimeter=0;" parent="1" source="_9nAamdEMPKrEvPj0qOe-10" target="_9nAamdEMPKrEvPj0qOe-7" edge="1">
          <mxGeometry width="50" height="50" relative="1" as="geometry">
            <mxPoint x="500" y="150" as="sourcePoint" />
            <mxPoint x="500" y="420" as="targetPoint" />
            <Array as="points">
              <mxPoint x="295" y="240" />
              <mxPoint x="460" y="240" />
              <mxPoint x="460" y="360" />
              <mxPoint x="470" y="360" />
              <mxPoint x="470" y="420" />
              <mxPoint x="460" y="420" />
            </Array>
          </mxGeometry>
        </mxCell>
        <mxCell id="_9nAamdEMPKrEvPj0qOe-33" value="" style="edgeStyle=segmentEdgeStyle;endArrow=classic;html=1;exitX=0;exitY=0.5;exitDx=0;exitDy=0;" parent="1" source="_9nAamdEMPKrEvPj0qOe-3" target="_9nAamdEMPKrEvPj0qOe-8" edge="1">
          <mxGeometry width="50" height="50" relative="1" as="geometry">
            <mxPoint x="220" y="190" as="sourcePoint" />
            <mxPoint x="530" y="100" as="targetPoint" />
            <Array as="points">
              <mxPoint x="250" y="190" />
              <mxPoint x="260" y="190" />
              <mxPoint x="260" y="240" />
              <mxPoint x="262" y="240" />
              <mxPoint x="262" y="260" />
              <mxPoint x="370" y="260" />
              <mxPoint x="370" y="401" />
            </Array>
          </mxGeometry>
        </mxCell>
        <mxCell id="_9nAamdEMPKrEvPj0qOe-35" value="" style="edgeStyle=segmentEdgeStyle;endArrow=classic;html=1;entryX=0.97;entryY=0.36;entryDx=0;entryDy=0;entryPerimeter=0;" parent="1" target="_9nAamdEMPKrEvPj0qOe-16" edge="1">
          <mxGeometry width="50" height="50" relative="1" as="geometry">
            <mxPoint x="510" y="140" as="sourcePoint" />
            <mxPoint x="560" y="90" as="targetPoint" />
          </mxGeometry>
        </mxCell>
        <mxCell id="_9nAamdEMPKrEvPj0qOe-36" value="&lt;font style=&quot;font-size: 8px&quot;&gt;ETHERNET CONNECTION&lt;/font&gt;" style="text;html=1;align=center;verticalAlign=middle;resizable=0;points=[];autosize=1;strokeColor=none;" parent="1" vertex="1">
          <mxGeometry x="255" y="255" width="110" height="20" as="geometry" />
        </mxCell>
        <mxCell id="_9nAamdEMPKrEvPj0qOe-37" value="&lt;font style=&quot;font-size: 9px&quot;&gt;ETHERNET CONNECTION&lt;/font&gt;" style="text;html=1;align=center;verticalAlign=middle;resizable=0;points=[];autosize=1;strokeColor=none;rotation=-90;" parent="1" vertex="1">
          <mxGeometry x="385" y="310" width="130" height="20" as="geometry" />
        </mxCell>
        <mxCell id="_9nAamdEMPKrEvPj0qOe-38" value="&lt;font style=&quot;font-size: 7px&quot;&gt;ETHERNET CONNECTION&lt;/font&gt;" style="text;html=1;align=center;verticalAlign=middle;resizable=0;points=[];autosize=1;strokeColor=none;" parent="1" vertex="1">
          <mxGeometry x="530" y="120" width="100" height="20" as="geometry" />
        </mxCell>
        <mxCell id="_9nAamdEMPKrEvPj0qOe-39" value="" style="edgeStyle=segmentEdgeStyle;endArrow=classic;html=1;" parent="1" target="_9nAamdEMPKrEvPj0qOe-4" edge="1">
          <mxGeometry width="50" height="50" relative="1" as="geometry">
            <mxPoint x="320" y="165" as="sourcePoint" />
            <mxPoint x="370" y="115" as="targetPoint" />
            <Array as="points">
              <mxPoint x="450" y="140" />
              <mxPoint x="450" y="140" />
            </Array>
          </mxGeometry>
        </mxCell>
        <mxCell id="_9nAamdEMPKrEvPj0qOe-40" value="&lt;font style=&quot;font-size: 9px&quot;&gt;CONNECTION&lt;/font&gt;&lt;br&gt;" style="text;html=1;align=center;verticalAlign=middle;resizable=0;points=[];autosize=1;strokeColor=none;" parent="1" vertex="1">
          <mxGeometry x="340" y="120" width="80" height="20" as="geometry" />
        </mxCell>
        <mxCell id="_9nAamdEMPKrEvPj0qOe-41" value="" style="edgeStyle=segmentEdgeStyle;endArrow=classic;html=1;exitX=1;exitY=0.5;exitDx=0;exitDy=0;" parent="1" source="_9nAamdEMPKrEvPj0qOe-1" target="_9nAamdEMPKrEvPj0qOe-2" edge="1">
          <mxGeometry width="50" height="50" relative="1" as="geometry">
            <mxPoint x="40" y="370" as="sourcePoint" />
            <mxPoint x="90" y="320" as="targetPoint" />
          </mxGeometry>
        </mxCell>
        <mxCell id="_9nAamdEMPKrEvPj0qOe-42" value="" style="edgeStyle=elbowEdgeStyle;elbow=horizontal;endArrow=classic;html=1;exitX=1;exitY=0.25;exitDx=0;exitDy=0;" parent="1" source="_9nAamdEMPKrEvPj0qOe-2" target="_9nAamdEMPKrEvPj0qOe-3" edge="1">
          <mxGeometry width="50" height="50" relative="1" as="geometry">
            <mxPoint x="130" y="205" as="sourcePoint" />
            <mxPoint x="180" y="155" as="targetPoint" />
          </mxGeometry>
        </mxCell>
        <mxCell id="_9nAamdEMPKrEvPj0qOe-43" value="" style="html=1;verticalLabelPosition=bottom;align=center;labelBackgroundColor=#ffffff;verticalAlign=top;strokeWidth=2;strokeColor=#0080F0;shadow=0;dashed=0;shape=mxgraph.ios7.icons.home;" parent="1" vertex="1">
          <mxGeometry x="60" y="480" width="60" height="50" as="geometry" />
        </mxCell>
        <mxCell id="_9nAamdEMPKrEvPj0qOe-44" value="" style="shape=link;html=1;exitX=1;exitY=0.56;exitDx=0;exitDy=0;exitPerimeter=0;" parent="1" source="_9nAamdEMPKrEvPj0qOe-43" edge="1">
          <mxGeometry width="100" relative="1" as="geometry">
            <mxPoint x="210" y="530" as="sourcePoint" />
            <mxPoint x="340" y="560" as="targetPoint" />
          </mxGeometry>
        </mxCell>
        <mxCell id="_9nAamdEMPKrEvPj0qOe-45" value="&lt;font style=&quot;font-size: 10px&quot;&gt;fiber optic cable&lt;/font&gt;" style="text;html=1;align=center;verticalAlign=middle;resizable=0;points=[];autosize=1;strokeColor=none;rotation=15;" parent="1" vertex="1">
          <mxGeometry x="175" y="500" width="90" height="20" as="geometry" />
        </mxCell>
        <mxCell id="_9nAamdEMPKrEvPj0qOe-47" value="" style="endArrow=none;dashed=1;html=1;dashPattern=1 3;strokeWidth=2;" parent="1" edge="1">
          <mxGeometry width="50" height="50" relative="1" as="geometry">
            <mxPoint x="90" y="470" as="sourcePoint" />
            <mxPoint x="60" y="411.9" as="targetPoint" />
          </mxGeometry>
        </mxCell>
        <mxCell id="_9nAamdEMPKrEvPj0qOe-48" value="Motorola&lt;br&gt;004036551003&lt;br&gt;192.168.1.0" style="text;html=1;align=center;verticalAlign=middle;resizable=0;points=[];autosize=1;strokeColor=none;" parent="1" vertex="1">
          <mxGeometry x="10" y="235" width="100" height="50" as="geometry" />
        </mxCell>
        <mxCell id="_9nAamdEMPKrEvPj0qOe-49" value="NETGEAR&lt;br&gt;0014785301D8&lt;br&gt;192.168.1.1" style="text;html=1;align=center;verticalAlign=middle;resizable=0;points=[];autosize=1;strokeColor=none;" parent="1" vertex="1">
          <mxGeometry x="180" y="115" width="100" height="50" as="geometry" />
        </mxCell>
        <mxCell id="_9nAamdEMPKrEvPj0qOe-50" value="NETGEAR&lt;br&gt;245DF5CCAD9DE&lt;br&gt;192.168.1.2" style="text;html=1;align=center;verticalAlign=middle;resizable=0;points=[];autosize=1;strokeColor=none;" parent="1" vertex="1">
          <mxGeometry x="490" y="200" width="120" height="50" as="geometry" />
        </mxCell>
        <mxCell id="H1lxb03ezg0agEMoxU-L-1" value="1+&lt;br&gt;255.255.255.0&lt;br&gt;192.168.1.3" style="text;html=1;align=center;verticalAlign=middle;resizable=0;points=[];autosize=1;strokeColor=none;" vertex="1" parent="1">
          <mxGeometry x="665" y="465" width="90" height="50" as="geometry" />
        </mxCell>
        <mxCell id="H1lxb03ezg0agEMoxU-L-2" value="Acer&lt;br&gt;255.255.255.1&lt;br&gt;192.168.1.4" style="text;html=1;align=center;verticalAlign=middle;resizable=0;points=[];autosize=1;strokeColor=none;" vertex="1" parent="1">
          <mxGeometry x="745" y="355" width="90" height="50" as="geometry" />
        </mxCell>
        <mxCell id="H1lxb03ezg0agEMoxU-L-3" value="Apple&lt;br&gt;255.255.255.5&lt;br&gt;192.168.1.5" style="text;html=1;align=center;verticalAlign=middle;resizable=0;points=[];autosize=1;strokeColor=none;" vertex="1" parent="1">
          <mxGeometry x="718" y="90" width="90" height="50" as="geometry" />
        </mxCell>
        <mxCell id="H1lxb03ezg0agEMoxU-L-4" value="Printer" style="text;html=1;align=center;verticalAlign=middle;resizable=0;points=[];autosize=1;strokeColor=none;" vertex="1" parent="1">
          <mxGeometry x="485" y="440" width="50" height="20" as="geometry" />
        </mxCell>
        <mxCell id="H1lxb03ezg0agEMoxU-L-5" value="Desktop&amp;nbsp;" style="text;html=1;align=center;verticalAlign=middle;resizable=0;points=[];autosize=1;strokeColor=none;" vertex="1" parent="1">
          <mxGeometry x="240" y="340" width="60" height="20" as="geometry" />
        </mxCell>
        <mxCell id="H1lxb03ezg0agEMoxU-L-6" value="Apple&lt;br&gt;255.255.255.6&lt;br&gt;192.168.1.6" style="text;html=1;align=center;verticalAlign=middle;resizable=0;points=[];autosize=1;strokeColor=none;" vertex="1" parent="1">
          <mxGeometry x="225" y="435" width="90" height="50" as="geometry" />
        </mxCell>
        <mxCell id="H1lxb03ezg0agEMoxU-L-7" value="HP&lt;br&gt;255.255.255.7&lt;br&gt;192.168.1.7" style="text;html=1;align=center;verticalAlign=middle;resizable=0;points=[];autosize=1;strokeColor=none;" vertex="1" parent="1">
          <mxGeometry x="485" y="495" width="90" height="50" as="geometry" />
        </mxCell>
      </root>
    </mxGraphModel>
  </diagram>
</mxfile>
